<?xml version="1.0" encoding="UTF-8"?> <svg xmlns="http://www.w3.org/2000/svg" width="439" height="156" viewBox="0 0 439 156" fill="none"> <g clip-path="url(#clip0_502_169)"> <path d="M347.431 110.076H354.18L350.651 89.6324L347.431 110.076ZM356.471 123.581L354.923 114.598H346.75L345.326 123.581H339.753L346.626 84.8003H354.737L362.106 123.581H356.471Z" fill="#16181A"></path> <path d="M433.861 84.8003H439V123.581H433.365L425.192 95.5797V123.581H420.053V84.8003H425.935L433.861 111.997V84.8003Z" fill="#16181A"></path> <path d="M408.935 117.262V91.1192C408.935 90.3758 408.811 89.9009 408.563 89.6944C408.316 89.4466 407.82 89.3227 407.077 89.3227H403.486C402.743 89.3227 402.248 89.4466 402 89.6944C401.793 89.9009 401.69 90.3758 401.69 91.1192V117.262C401.69 118.006 401.793 118.501 402 118.749C402.248 118.956 402.743 119.059 403.486 119.059H407.077C407.82 119.059 408.316 118.956 408.563 118.749C408.811 118.501 408.935 118.006 408.935 117.262ZM401.876 84.8003H408.749C412.588 84.8003 414.507 86.6175 414.507 90.2519V118.13C414.507 121.764 412.588 123.581 408.749 123.581H401.876C397.996 123.581 396.056 121.764 396.056 118.13V90.2519C396.056 86.6175 397.996 84.8003 401.876 84.8003Z" fill="#16181A"></path> <path d="M384.479 84.8003H390.052V123.581H384.479V84.8003Z" fill="#16181A"></path> <path d="M381.1 84.8003V89.3227H374.599V123.581H369.026V89.3227H362.524V84.8003H381.1Z" fill="#16181A"></path> <path d="M315.813 123.581H310.922V84.8003H317.052L323.677 108.837L330.302 84.8003H336.432V123.581H331.541V95.208L326.216 115.156H321.138L315.813 95.2699V123.581Z" fill="#16181A"></path> <path d="M292.564 89.3227V103.447H298.013C298.756 103.447 299.252 103.344 299.499 103.138C299.747 102.89 299.871 102.394 299.871 101.651V91.1192C299.871 90.3758 299.747 89.9009 299.499 89.6944C299.252 89.4466 298.756 89.3227 298.013 89.3227H292.564ZM292.564 107.908V123.581H286.992V84.8003H299.685C303.524 84.8003 305.443 86.6175 305.443 90.2519V102.394C305.443 105.533 304.061 107.33 301.295 107.784L307.425 123.581H301.419L295.598 107.908H292.564Z" fill="#16181A"></path> <path d="M275.873 117.262V91.1192C275.873 90.3758 275.749 89.9009 275.501 89.6944C275.254 89.4466 274.758 89.3227 274.015 89.3227H270.424C269.681 89.3227 269.186 89.4466 268.938 89.6944C268.731 89.9009 268.628 90.3758 268.628 91.1192V117.262C268.628 118.006 268.731 118.501 268.938 118.749C269.186 118.956 269.681 119.059 270.424 119.059H274.015C274.758 119.059 275.254 118.956 275.501 118.749C275.749 118.501 275.873 118.006 275.873 117.262ZM268.814 84.8003H275.687C279.526 84.8003 281.445 86.6175 281.445 90.2519V118.13C281.445 121.764 279.526 123.581 275.687 123.581H268.814C264.934 123.581 262.994 121.764 262.994 118.13V90.2519C262.994 86.6175 264.934 84.8003 268.814 84.8003Z" fill="#16181A"></path> <path d="M259.586 89.3227H248.317V102.084H257.234V106.483H248.317V123.581H242.683V84.8003H259.586V89.3227Z" fill="#16181A"></path> <path d="M230.252 117.262V107.784C230.252 107.04 230.128 106.566 229.88 106.359C229.674 106.111 229.199 105.987 228.456 105.987H223.874C220.118 105.987 218.24 104.149 218.24 100.474V90.2519C218.24 86.6175 220.159 84.8003 223.998 84.8003H230.066C233.905 84.8003 235.825 86.6175 235.825 90.2519V95.9514H230.19V91.1192C230.19 90.3758 230.066 89.9009 229.819 89.6944C229.571 89.4466 229.076 89.3227 228.332 89.3227H225.732C224.989 89.3227 224.494 89.4466 224.246 89.6944C223.998 89.9009 223.874 90.3758 223.874 91.1192V99.7303C223.874 100.474 223.998 100.969 224.246 101.217C224.494 101.424 224.989 101.527 225.732 101.527H230.252C234.05 101.527 235.948 103.344 235.948 106.979V118.13C235.948 121.764 234.008 123.581 230.128 123.581H224.122C220.283 123.581 218.364 121.764 218.364 118.13V112.43H223.998V117.262C223.998 118.006 224.122 118.501 224.37 118.749C224.617 118.956 225.113 119.059 225.856 119.059H228.456C229.199 119.059 229.674 118.956 229.88 118.749C230.128 118.501 230.252 118.006 230.252 117.262Z" fill="#16181A"></path> <path d="M207.759 84.8003H212.898V123.581H207.264L199.09 95.5797V123.581H193.951V84.8003H199.833L207.759 111.997V84.8003Z" fill="#16181A"></path> <path d="M175.761 110.076H182.51L178.981 89.6324L175.761 110.076ZM184.801 123.581L183.253 114.598H175.08L173.656 123.581H168.083L174.956 84.8003H183.067L190.436 123.581H184.801Z" fill="#16181A"></path> <path d="M149.386 89.3227V103.447H154.835C155.578 103.447 156.073 103.344 156.321 103.138C156.569 102.89 156.693 102.394 156.693 101.651V91.1192C156.693 90.3758 156.569 89.9009 156.321 89.6944C156.073 89.4466 155.578 89.3227 154.835 89.3227H149.386ZM149.386 107.908V123.581H143.813V84.8003H156.507C160.346 84.8003 162.265 86.6175 162.265 90.2519V102.394C162.265 105.533 160.882 107.33 158.117 107.784L164.247 123.581H158.241L152.42 107.908H149.386Z" fill="#16181A"></path> <path fill-rule="evenodd" clip-rule="evenodd" d="M137.934 89.3227V84.8003H124.518L121.422 89.3227H125.86V123.581H131.433V89.3227H137.934Z" fill="#16181A"></path> <path d="M119.358 84.8003V89.3227H121.422L124.518 84.8003H119.358Z" fill="#16181A"></path> <path fill-rule="evenodd" clip-rule="evenodd" d="M294.28 66.204H284.735V32H279.171V70.7191H291.006L294.28 66.204Z" fill="#16181A"></path> <path d="M259.341 57.2355H266.08L262.556 36.8244L259.341 57.2355ZM268.367 70.7191L266.822 61.7506H258.661L257.24 70.7191H251.676L258.538 32H266.636L273.993 70.7191H268.367Z" fill="#16181A"></path> <path d="M247.414 44.1229H241.727V38.1852C241.727 37.4429 241.603 36.9688 241.356 36.7626C241.15 36.5152 240.676 36.3915 239.934 36.3915H236.781C236.039 36.3915 235.545 36.5152 235.297 36.7626C235.05 36.9688 234.926 37.4429 234.926 38.1852V64.5958C234.926 65.338 235.05 65.8329 235.297 66.0803C235.545 66.2864 236.039 66.3895 236.781 66.3895H239.934C240.676 66.3895 241.15 66.2864 241.356 66.0803C241.603 65.8329 241.727 65.338 241.727 64.5958V58.7199H247.414V65.2762C247.414 68.9461 245.477 70.781 241.603 70.781H235.05C231.217 70.781 229.301 68.9461 229.301 65.2762V37.4429C229.301 33.8143 231.217 32 235.05 32H241.603C245.477 32 247.414 33.8143 247.414 37.4429V44.1229Z" fill="#16181A"></path> <path d="M217.461 32H223.025V70.7191H217.461V32Z" fill="#16181A"></path> <path d="M205.372 64.4103V54.947C205.372 54.2047 205.248 53.7305 205.001 53.5244C204.795 53.277 204.321 53.1533 203.579 53.1533H199.005C195.254 53.1533 193.379 51.3183 193.379 47.6485V37.4429C193.379 33.8143 195.295 32 199.128 32H205.187C209.019 32 210.936 33.8143 210.936 37.4429V43.1333H205.31V38.3089C205.31 37.5666 205.187 37.0925 204.939 36.8863C204.692 36.6389 204.197 36.5152 203.456 36.5152H200.859C200.117 36.5152 199.623 36.6389 199.375 36.8863C199.128 37.0925 199.005 37.5666 199.005 38.3089V46.9063C199.005 47.6485 199.128 48.1433 199.375 48.3907C199.623 48.5969 200.117 48.6999 200.859 48.6999H205.372C209.164 48.6999 211.059 50.5143 211.059 54.1429V65.2762C211.059 68.9048 209.122 70.7191 205.248 70.7191H199.252C195.419 70.7191 193.503 68.9048 193.503 65.2762V59.5858H199.128V64.4103C199.128 65.1525 199.252 65.6473 199.499 65.8947C199.746 66.1009 200.241 66.204 200.983 66.204H203.579C204.321 66.204 204.795 66.1009 205.001 65.8947C205.248 65.6473 205.372 65.1525 205.372 64.4103Z" fill="#16181A"></path> <path d="M181.613 70.7191H175.987V58.4725L167.703 32H173.391L178.769 53.3388L183.838 32H189.526L181.613 58.4725V70.7191Z" fill="#16181A"></path> <path d="M157.259 32H162.822V70.7191H157.259V53.7099H149.036V70.7191H143.473V32H149.036V49.1948H157.259V32Z" fill="#16181A"></path> <path d="M131.914 49.4422V38.3089C131.914 37.5666 131.791 37.0925 131.543 36.8863C131.296 36.6389 130.801 36.5152 130.06 36.5152H124.619V51.2977H130.06C130.801 51.2977 131.296 51.174 131.543 50.9266C131.791 50.6792 131.914 50.1844 131.914 49.4422ZM119.056 32H131.729C135.562 32 137.478 33.8143 137.478 37.4429V50.3081C137.478 53.9367 135.562 55.751 131.729 55.751H124.619V70.7191H119.056V32Z" fill="#16181A"></path> <rect y="32" width="91.5814" height="91.5814" fill="#16181A"></rect> <path fill-rule="evenodd" clip-rule="evenodd" d="M16 48H75.3826V108H16V48ZM19.6264 52.8411V100.224L43.063 65.3097L19.6264 52.8411ZM47.5048 61.627L66.2832 51.6364H47.5046L47.5048 61.627ZM43.8781 51.6364H25.0995L43.8783 61.627L43.8781 51.6364ZM71.7562 52.8411L48.3202 65.3097L71.7562 100.224V52.8411ZM70.1633 104.364L45.6916 67.9061L21.2194 104.364H70.1633Z" fill="#A07DEF"></path> <path fill-rule="evenodd" clip-rule="evenodd" d="M16 48H75.3826V108H16V48ZM19.6264 52.8411V100.224L43.063 65.3097L19.6264 52.8411ZM47.5048 61.627L66.2832 51.6364H47.5046L47.5048 61.627ZM43.8781 51.6364H25.0995L43.8783 61.627L43.8781 51.6364ZM71.7562 52.8411L48.3202 65.3097L71.7562 100.224V52.8411ZM70.1633 104.364L45.6916 67.9061L21.2194 104.364H70.1633Z" fill="#6F3ED0" fill-opacity="0.2"></path> <path fill-rule="evenodd" clip-rule="evenodd" d="M16 48H75.3826V108H16V48ZM19.6264 52.8411V100.224L43.063 65.3097L19.6264 52.8411ZM47.5048 61.627L66.2832 51.6364H47.5046L47.5048 61.627ZM43.8781 51.6364H25.0995L43.8783 61.627L43.8781 51.6364ZM71.7562 52.8411L48.3202 65.3097L71.7562 100.224V52.8411ZM70.1633 104.364L45.6916 67.9061L21.2194 104.364H70.1633Z" stroke="#A07DEF" stroke-width="2"></path> <path fill-rule="evenodd" clip-rule="evenodd" d="M16 48H75.3826V108H16V48ZM19.6264 52.8411V100.224L43.063 65.3097L19.6264 52.8411ZM47.5048 61.627L66.2832 51.6364H47.5046L47.5048 61.627ZM43.8781 51.6364H25.0995L43.8783 61.627L43.8781 51.6364ZM71.7562 52.8411L48.3202 65.3097L71.7562 100.224V52.8411ZM70.1633 104.364L45.6916 67.9061L21.2194 104.364H70.1633Z" stroke="#6F3ED0" stroke-opacity="0.2" stroke-width="2"></path> </g> <defs> <clipPath id="clip0_502_169"> <rect width="439" height="156" fill="white"></rect> </clipPath> </defs> </svg> 